<svg xmlns="http://www.w3.org/2000/svg" viewBox="0 0 1200 675">
  <defs>
    <linearGradient id="bg7" x1="0" y1="0" x2="1" y2="1">
      <stop offset="0%" stop-color="#185FA5" stop-opacity="0.08"/>
      <stop offset="100%" stop-color="#0E6245" stop-opacity="0.06"/>
    </linearGradient>
  </defs>
  <rect width="1200" height="675" fill="url(#bg7)"/>
  <!-- Globe -->
  <circle cx="420" cy="320" r="120" fill="#185FA5" opacity="0.05"/>
  <circle cx="420" cy="320" r="100" fill="#185FA5" opacity="0.04"/>
  <ellipse cx="420" cy="320" rx="100" ry="20" fill="none" stroke="#185FA5" stroke-width="0.8" opacity="0.12"/>
  <ellipse cx="420" cy="320" rx="20" ry="100" fill="none" stroke="#185FA5" stroke-width="0.8" opacity="0.12"/>
  <ellipse cx="420" cy="320" rx="80" ry="40" fill="none" stroke="#185FA5" stroke-width="0.8" opacity="0.08" transform="rotate(45 420 320)"/>
  <ellipse cx="420" cy="320" rx="80" ry="40" fill="none" stroke="#185FA5" stroke-width="0.8" opacity="0.08" transform="rotate(-45 420 320)"/>
  <!-- Search glass -->
  <circle cx="600" cy="240" r="50" fill="#0E6245" opacity="0.06"/>
  <circle cx="600" cy="240" r="30" fill="none" stroke="#0E6245" stroke-width="3" opacity="0.15"/>
  <line x1="625" y1="265" x2="650" y2="290" stroke="#0E6245" stroke-width="3" stroke-linecap="round" opacity="0.15"/>
  <!-- Ranking bars -->
  <rect x="530" y="380" width="40" height="100" rx="4" fill="#0E6245" opacity="0.1"/>
  <rect x="580" y="340" width="40" height="140" rx="4" fill="#0E6245" opacity="0.2"/>
  <rect x="630" y="400" width="40" height="80" rx="4" fill="#0E6245" opacity="0.15"/>
  <rect x="680" y="360" width="40" height="120" rx="4" fill="#0E6245" opacity="0.12"/>
  <!-- AI sparkle -->
  <path d="M720 200 l6-12 l12-6 l-12-6 l-6-12 l-6 12-12 6 12 6 z" fill="#185FA5" opacity="0.12"/>
  <path d="M750 180 l3-6 6-3-6-3-3-6-3 6-6 3 6 3 z" fill="#185FA5" opacity="0.08"/>
  <path d="M700 170 l2-4 4-2-4-2-2-4-2 4-4 2 4 2 z" fill="#185FA5" opacity="0.1"/>
  <!-- Bottom -->
  <text x="600" y="570" font-family="system-ui" font-size="13" fill="#185FA5" text-anchor="middle" opacity="0.6" letter-spacing="2">GEO OPTIMIZATION GUIDE</text>
</svg>
