<svg xmlns="http://www.w3.org/2000/svg" viewBox="0 0 1200 675">
  <defs>
    <linearGradient id="bg1" x1="0" y1="0" x2="1" y2="1">
      <stop offset="0%" stop-color="#0E6245" stop-opacity="0.08"/>
      <stop offset="100%" stop-color="#185FA5" stop-opacity="0.06"/>
    </linearGradient>
    <linearGradient id="bar1" x1="0" y1="0" x2="0" y2="1">
      <stop offset="0%" stop-color="#0E6245"/>
      <stop offset="100%" stop-color="#0E6245" stop-opacity="0.6"/>
    </linearGradient>
  </defs>
  <rect width="1200" height="675" fill="url(#bg1)"/>
  <!-- Document elements -->
  <rect x="340" y="120" width="520" height="420" rx="12" fill="#fff" stroke="#0E6245" stroke-width="1.5" stroke-opacity="0.2"/>
  <rect x="380" y="160" width="440" height="4" rx="2" fill="#0E6245" opacity="0.3"/>
  <rect x="380" y="180" width="320" height="4" rx="2" fill="#0E6245" opacity="0.15"/>
  <!-- Patent badge -->
  <rect x="380" y="210" width="100" height="26" rx="13" fill="#0E6245" opacity="0.1"/>
  <text x="430" y="227" font-family="system-ui" font-size="11" fill="#0E6245" text-anchor="middle" font-weight="600">PATENT</text>
  <!-- Chart bars -->
  <rect x="380" y="260" width="60" height="120" rx="4" fill="url(#bar1)" opacity="0.7"/>
  <rect x="460" y="300" width="60" height="80" rx="4" fill="#0E6245" opacity="0.45"/>
  <rect x="540" y="240" width="60" height="140" rx="4" fill="#0E6245" opacity="0.3"/>
  <rect x="620" y="270" width="60" height="110" rx="4" fill="#0E6245" opacity="0.55"/>
  <rect x="700" y="290" width="60" height="90" rx="4" fill="#0E6245" opacity="0.35"/>
  <!-- Trend line -->
  <polyline points="390,380 450,340 510,360 570,320 630,350 690,310" fill="none" stroke="#185FA5" stroke-width="2.5" stroke-linecap="round" stroke-linejoin="round"/>
  <!-- Bulb icon -->
  <circle cx="850" cy="480" r="40" fill="#0E6245" opacity="0.08"/>
  <path d="M840 460h20v6h-20z M850 466v4 M846 474h8v2h-8z" fill="#0E6245" opacity="0.5"/>
  <!-- Globe dots -->
  <circle cx="300" cy="480" r="4" fill="#0E6245" opacity="0.3"/>
  <circle cx="320" cy="495" r="3" fill="#0E6245" opacity="0.2"/>
  <circle cx="280" cy="500" r="2.5" fill="#0E6245" opacity="0.15"/>
  <!-- Bottom label -->
  <text x="600" y="580" font-family="system-ui" font-size="13" fill="#0E6245" text-anchor="middle" opacity="0.6" letter-spacing="2">TECHNOLOGY PATENT TRENDS</text>
</svg>
